<?xml version="1.0" standalone="no"?>
<!DOCTYPE svg PUBLIC "-//W3C//DTD SVG 20010904//EN"
 "http://www.w3.org/TR/2001/REC-SVG-20010904/DTD/svg10.dtd">
<svg version="1.0" xmlns="http://www.w3.org/2000/svg"
 width="285.000000pt" height="286.000000pt" viewBox="0 0 285.000000 286.000000"
 preserveAspectRatio="xMidYMid meet">

<g transform="translate(0.000000,286.000000) scale(0.100000,-0.100000)"
fill="#000000" stroke="none">
<path d="M713 2853 c395 -2 1039 -2 1430 0 392 1 69 2 -718 2 -786 0 -1107 -1
-712 -2z"/>
<path d="M170 2380 l0 -300 305 0 305 0 0 300 0 300 -305 0 -305 0 0 -300z
m520 -5 l0 -215 -215 0 -215 0 0 215 0 215 215 0 215 0 0 -215z"/>
<path d="M350 2380 l0 -130 125 0 125 0 0 130 0 130 -125 0 -125 0 0 -130z"/>
<path d="M1380 2635 l0 -45 -130 0 -130 0 0 -40 0 -40 173 -2 172 -3 0 -40 c0
-40 0 -40 -42 -43 l-43 -3 0 -85 0 -84 -85 0 -85 0 0 45 0 45 40 0 40 0 0 40
0 40 -40 0 -40 0 0 -40 0 -40 -45 0 -45 0 0 40 c0 40 0 40 -39 40 -40 0 -40 0
-43 43 -3 42 -3 42 -45 45 -43 3 -43 3 -43 43 l0 39 -45 0 -45 0 0 -40 0 -40
45 0 45 0 0 -45 0 -45 45 0 46 0 -3 -82 -3 -83 -42 -3 -43 -3 0 -45 0 -44 -45
0 -45 0 0 -130 0 -130 -40 0 -40 0 0 45 0 45 -45 0 -45 0 0 -45 0 -45 -45 0
-45 0 0 -40 0 -40 -40 0 -40 0 0 40 0 40 -45 0 -45 0 0 -40 0 -40 -40 0 -40 0
0 -45 0 -45 40 0 40 0 0 45 0 45 45 0 45 0 0 -85 0 -85 40 0 40 0 0 -130 0
-130 -40 0 -40 0 0 -45 0 -45 -45 0 -45 0 0 175 0 175 -85 0 -85 0 0 85 0 85
-45 0 -45 0 0 -215 0 -215 45 0 46 0 -3 -87 -3 -88 -42 -3 -43 -3 0 -124 0
-124 88 -3 87 -3 3 -42 3 -43 125 0 124 0 0 85 0 85 90 0 90 0 0 -40 0 -40
-45 0 -45 0 0 -45 0 -45 45 0 45 0 0 45 0 45 40 0 40 0 0 40 0 40 45 0 45 0 0
44 0 45 43 3 c41 3 42 4 45 41 l3 37 -45 0 -46 0 0 45 0 45 -45 0 -45 0 0 130
0 130 45 0 45 0 0 -45 0 -45 46 0 47 0 -6 -40 -5 -40 44 0 44 0 0 -45 0 -45
45 0 45 0 0 45 0 45 -45 0 -45 0 0 40 0 40 85 0 85 0 0 -85 0 -85 45 0 45 0 0
46 0 45 43 -3 c42 -3 42 -3 45 -45 3 -43 3 -43 43 -43 l39 0 0 -45 0 -45 -130
0 -130 0 0 -40 0 -40 -40 0 -40 0 0 -45 0 -45 40 0 40 0 0 -85 0 -85 -40 0
-40 0 0 -45 0 -45 -45 0 -45 0 0 45 0 45 -39 0 c-40 0 -40 0 -43 42 -3 43 -3
43 -45 46 l-43 3 0 -45 0 -46 -46 0 -45 0 3 -42 c3 -43 3 -43 46 -46 l42 -3 0
-169 0 -169 43 -3 c42 -3 42 -3 45 -45 l3 -43 -90 0 -91 0 0 -85 0 -85 45 0
45 0 0 45 0 45 45 0 45 0 0 40 0 40 40 0 40 0 0 45 0 45 45 0 45 0 0 -85 0
-85 40 0 40 0 0 85 0 85 45 0 45 0 0 85 0 85 45 0 45 0 0 -215 0 -215 40 0 40
0 0 85 0 85 45 0 45 0 0 45 0 45 39 0 c40 0 40 0 43 -42 3 -43 3 -43 46 -46
l42 -3 0 45 0 46 45 0 45 0 0 -85 0 -85 -130 0 -130 0 0 -45 0 -45 215 0 215
0 0 170 0 170 45 0 45 0 0 -40 0 -40 40 0 c40 0 40 0 40 39 0 40 0 40 43 43
42 3 42 3 45 46 3 42 3 42 43 42 l39 0 0 -45 0 -45 -40 0 -40 0 0 -40 0 -40
40 0 40 0 0 -45 0 -45 -40 0 -40 0 0 -40 0 -40 85 0 85 0 0 -45 0 -45 46 0 45
0 -3 43 c-3 42 -3 42 -45 45 -43 3 -43 3 -43 43 l0 39 45 0 45 0 0 85 0 85 40
0 40 0 0 45 0 45 -85 0 -85 0 0 175 0 175 85 0 85 0 0 40 0 40 -85 0 -85 0 0
45 0 45 -45 0 -45 0 0 85 0 85 -85 0 -85 0 0 85 0 85 45 0 45 0 0 -40 0 -40
85 0 85 0 0 -45 0 -45 46 0 45 0 -3 43 c-3 42 -3 42 -45 45 l-43 3 0 85 0 84
45 0 45 0 0 -45 0 -45 40 0 40 0 0 45 0 45 -40 0 -40 0 0 45 0 45 40 0 40 0 0
40 0 40 -85 0 -85 0 0 45 0 45 -85 0 -85 0 0 40 0 40 -85 0 -85 0 0 -255 0
-255 -90 0 -90 0 0 40 0 40 45 0 45 0 0 45 0 45 -46 0 -45 0 3 43 c3 42 3 42
46 45 l42 3 0 124 0 124 43 3 c42 3 42 3 45 46 l3 42 -90 0 -91 0 0 -45 0 -45
-130 0 -130 0 0 -40 0 -40 130 0 130 0 0 -45 0 -45 -40 0 c-40 0 -40 0 -40
-39 0 -40 0 -40 -42 -43 l-43 -3 -3 -127 -3 -128 -44 0 -45 0 0 85 0 85 -85 0
-85 0 0 -45 0 -45 -40 0 -39 0 -3 88 -3 87 -42 3 c-43 3 -43 3 -43 43 l0 39
-45 0 -45 0 0 45 0 45 90 0 90 0 0 40 0 39 83 3 82 3 3 43 3 42 -45 0 -46 0 0
45 0 45 45 0 45 0 0 85 0 85 -45 0 -45 0 0 170 0 170 45 0 45 0 0 -40 0 -40
40 0 40 0 0 -45 0 -45 -40 0 -40 0 0 -40 c0 -40 0 -40 40 -40 l40 0 2 -172 3
-173 43 -3 42 -3 0 85 0 86 45 0 45 0 0 -40 0 -40 40 0 40 0 0 40 0 40 -40 0
-40 0 0 45 0 45 40 0 40 0 0 85 0 85 -40 0 -40 0 0 -85 0 -85 -45 0 -45 0 0
170 0 170 85 0 85 0 0 45 0 45 -215 0 -215 0 0 -45 0 -45 -40 0 -40 0 0 45 0
45 -45 0 -45 0 0 -45z m170 -470 l0 -85 -40 0 -40 0 0 85 0 85 40 0 40 0 0
-85z m-512 -87 l-3 -83 -42 -3 -43 -3 0 85 0 86 45 0 46 0 -3 -82z m172 42 l0
-40 -45 0 -45 0 0 40 0 40 45 0 45 0 0 -40z m170 -45 l0 -85 45 0 45 0 0 -45
0 -46 -87 3 -88 3 -3 128 -3 127 46 0 45 0 0 -85z m-258 -127 c3 -43 3 -43 46
-46 l42 -3 0 -125 0 -124 85 0 85 0 0 -45 0 -45 -215 0 -215 0 0 45 0 45 45 0
45 0 0 40 0 40 40 0 40 0 0 45 0 45 -42 0 -43 0 0 85 0 85 42 0 42 0 3 -42z
m-342 -88 l0 -40 -45 0 -45 0 0 -45 0 -45 85 0 85 0 0 -40 0 -40 -85 0 -85 0
0 39 c0 40 0 40 -42 43 -43 3 -43 3 -46 46 l-3 42 45 0 46 0 0 40 0 40 45 0
45 0 0 -40z m170 0 l0 -40 -45 0 -45 0 0 40 0 40 45 0 45 0 0 -40z m1380 -125
l0 -85 -45 0 -45 0 0 85 0 85 45 0 45 0 0 -85z m170 -90 l0 -85 -45 0 -45 0 0
85 0 85 45 0 45 0 0 -85z m-2155 -130 c0 -40 0 -40 -42 -43 l-43 -3 0 46 0 46
43 -3 c42 -3 42 -3 42 -43z m433 3 c-3 -43 -3 -43 -45 -46 l-43 -3 0 45 0 46
46 0 45 0 -3 -42z m1202 -3 l0 -45 -40 0 -40 0 0 45 0 45 40 0 40 0 0 -45z
m-1202 -172 l3 -43 -46 0 -46 0 3 -42 3 -43 128 -3 127 -3 0 -39 0 -40 -45 0
-45 0 0 -45 0 -45 -40 0 -40 0 0 45 0 46 -87 -3 -88 -3 -3 -42 -3 -43 -85 0
-84 0 0 45 0 45 -39 0 c-40 0 -40 0 -43 -42 -3 -43 -3 -43 -45 -46 l-43 -3 0
45 0 46 45 0 45 0 0 40 0 40 40 0 40 0 0 -40 0 -40 45 0 45 0 0 85 0 85 40 0
40 0 0 45 0 46 88 -3 87 -3 3 -42z m944 5 c3 -43 3 -43 46 -46 l42 -3 0 45 0
46 45 0 45 0 0 -45 0 -45 40 0 40 0 0 -45 0 -45 130 0 130 0 0 -85 0 -85 -39
0 c-40 0 -40 0 -43 43 l-3 42 -87 3 -88 3 0 -46 0 -45 -40 0 -40 0 0 -85 0
-85 -45 0 -45 0 0 -85 0 -85 45 0 45 0 0 -45 0 -45 -45 0 -45 0 0 -46 0 -45
-42 3 -43 3 -3 88 -3 87 -84 0 -85 0 0 -45 0 -45 46 0 45 0 -3 -43 c-3 -42 -3
-42 -43 -42 -40 0 -40 0 -43 43 -3 42 -3 42 -43 42 l-39 0 0 45 0 45 -45 0
-45 0 0 -45 0 -45 -45 0 -45 0 0 -85 0 -85 -40 0 -40 0 0 85 0 85 -45 0 -45 0
0 -46 0 -45 -42 3 c-43 3 -43 3 -43 43 0 40 0 40 43 43 l42 3 0 45 0 44 130 0
130 0 0 39 c0 40 0 40 -42 43 -43 3 -43 3 -46 46 l-3 42 130 0 131 0 0 45 0
45 -85 0 -85 0 0 85 0 85 45 0 45 0 0 -45 0 -45 40 0 40 0 0 85 0 85 45 0 45
0 0 90 0 90 39 0 c40 0 40 0 43 -42z m688 -263 l0 -45 -40 0 -40 0 0 45 0 45
40 0 40 0 0 -45z m-170 -345 l0 -130 -130 0 -130 0 0 130 0 130 130 0 130 0 0
-130z m170 45 l0 -85 -40 0 -40 0 0 85 0 85 40 0 40 0 0 -85z m-430 -305 l0
-40 -40 0 -40 0 0 40 0 40 40 0 40 0 0 -40z m520 0 l0 -40 -45 0 -45 0 0 40 0
40 45 0 45 0 0 -40z"/>
<path d="M1640 1040 l0 -170 85 0 85 0 0 85 0 85 45 0 45 0 0 45 0 45 40 0 40
0 0 40 0 40 -40 0 -40 0 0 -40 0 -40 -45 0 -45 0 0 -46 0 -45 -42 3 -43 3 -3
83 -3 82 -39 0 -40 0 0 -170z"/>
<path d="M1470 740 l0 -40 40 0 40 0 0 40 0 40 -40 0 -40 0 0 -40z"/>
<path d="M2070 740 l0 -40 45 0 45 0 0 40 0 40 -45 0 -45 0 0 -40z"/>
<path d="M2070 2380 l0 -300 300 0 300 0 0 300 0 300 -300 0 -300 0 0 -300z
m520 -5 l0 -215 -215 0 -215 0 0 215 0 215 215 0 215 0 0 -215z"/>
<path d="M2240 2380 l0 -130 130 0 130 0 0 130 0 130 -130 0 -130 0 0 -130z"/>
<path d="M172 1948 l3 -43 85 0 85 0 3 43 3 42 -91 0 -91 0 3 -42z"/>
<path d="M2502 1948 c3 -43 3 -43 43 -43 40 0 40 0 43 43 l3 42 -46 0 -46 0 3
-42z"/>
<path d="M1550 1735 l0 -85 45 0 45 0 0 85 0 85 -45 0 -45 0 0 -85z"/>
<path d="M2590 1170 l0 -40 40 0 40 0 0 40 0 40 -40 0 -40 0 0 -40z"/>
<path d="M1036 1088 c2 -43 2 -43 43 -46 l41 -3 0 45 0 46 -43 0 -43 0 2 -42z"/>
<path d="M170 480 l0 -300 305 0 305 0 0 300 0 300 -305 0 -305 0 0 -300z
m520 5 l0 -215 -215 0 -215 0 0 215 0 215 215 0 215 0 0 -215z"/>
<path d="M350 480 l0 -130 125 0 125 0 0 130 0 130 -125 0 -125 0 0 -130z"/>
<path d="M2160 265 l0 -85 40 0 40 0 0 85 0 85 -40 0 -40 0 0 -85z"/>
</g>
</svg>
